<svg id="Layer_1" data-name="Layer 1" xmlns="http://www.w3.org/2000/svg" xmlns:xlink="http://www.w3.org/1999/xlink" viewBox="0 0 746.16 494.88"><defs><style>.cls-1{fill:url(#linear-gradient);}.cls-2{fill:#fff;}.cls-3{fill:#c00;}.cls-4{fill:#ededed;}.cls-5{fill:#f48e8e;}</style><linearGradient id="linear-gradient" x1="755.09" y1="479.83" x2="203.09" y2="149.31" gradientTransform="matrix(1, 0, 0, -1, 0, 494)" gradientUnits="userSpaceOnUse"><stop offset="0" stop-color="#fbfbfd"/><stop offset="1" stop-color="#eaeaea"/></linearGradient></defs><title>plane</title><g id="BACKGROUND_2" data-name="BACKGROUND 2"><rect class="cls-1" x="184.61" width="562" height="375"/><path class="cls-2" d="M534.86,44.19l55.44,64.16,34.77-21.59L543.82,39.11a1.52,1.52,0,0,0-1.33-.11l-7,2.78a1.51,1.51,0,0,0-.91,1.93A1.44,1.44,0,0,0,534.86,44.19Z"/><path class="cls-3" d="M535.61,41.71l-.16.07a1.51,1.51,0,0,0-.87,1.95,1.67,1.67,0,0,0,.28.46l55.44,64.16,34.77-21.59-9.3-5.46C600.4,95.85,570.13,84.43,535.61,41.71Z"/><path class="cls-2" d="M621.64,212l-20.33-82.33L639,113.74l-8,93.85a1.53,1.53,0,0,1-.68,1.14L624,212.87a1.52,1.52,0,0,1-2.12-.35A1.64,1.64,0,0,1,621.64,212Z"/><path class="cls-3" d="M624.1,212.78l-.15.09a1.53,1.53,0,0,1-2.11-.43,1.63,1.63,0,0,1-.2-.47l-20.33-82.33L639,113.74l-.92,10.75C617.35,128.61,609.17,159.92,624.1,212.78Z"/><path class="cls-2" d="M529,147.24c42.1-27.18,101-66,115.79-72.8s32.62-4.27,35.81,1.89-10,24.71-21,29.75S545.11,153.34,534.56,157.9,516.87,155.64,529,147.24Z"/><path class="cls-4" d="M611.56,118.36c-45.6,20.21-77.26,35.35-88.66,35.69-1.47,4.63,4.24,7,11.66,3.85,10.55-4.56,114.23-46.78,125.13-51.82s24.13-23.59,20.95-29.75a6,6,0,0,0-.73-1.07C674.58,87.61,641.92,104.9,611.56,118.36Z"/><path class="cls-2" d="M512.09,120.76l17.4,27.72,15.44-9.91-28.48-19.65a.63.63,0,0,0-.52-.08l-3.49,1a.63.63,0,0,0-.42.77A1,1,0,0,0,512.09,120.76Z"/><path class="cls-2" d="M546.18,186.8l-12.57-30.21,17-6.88-.42,34.6a.63.63,0,0,1-.23.47L547.13,187a.61.61,0,0,1-.86-.06A.42.42,0,0,1,546.18,186.8Z"/><path class="cls-5" d="M669.42,94.93a21.45,21.45,0,0,0,4.27-8.41L669,88.93A21.58,21.58,0,0,1,669.42,94.93Z"/><path class="cls-5" d="M668.52,87,674,84.2a9.77,9.77,0,0,0-.78-4.4l-6.36,3.29A23.18,23.18,0,0,1,668.52,87Z"/><path class="cls-5" d="M658.37,73.58a25,25,0,0,1,4,3.34l4.55-2.36A24.46,24.46,0,0,0,658.37,73.58Z"/><path class="cls-5" d="M663.65,78.38a28.16,28.16,0,0,1,2.27,3.06l6.34-3.28a9.57,9.57,0,0,0-3.11-2.62Z"/><path class="cls-5" d="M617.72,91.79l1.77,3.44,4.15-2.5-1.81-3.51Z"/><path class="cls-5" d="M612.53,95.07l1.72,3.33,4.15-2.5-1.77-3.42Z"/><path class="cls-5" d="M571.26,121.71l1,2,4.15-2.5-1.12-2.15Z"/><path class="cls-5" d="M576.4,118.35l1.14,2.2,4.14-2.5-1.21-2.35Z"/><path class="cls-5" d="M591.85,108.31l1.42,2.74,4.15-2.5-1.49-2.87Z"/><path class="cls-5" d="M581.55,115l1.23,2.38,4.15-2.5-1.31-2.53Z"/><path class="cls-5" d="M597,105l1.51,2.91,4.14-2.5-1.57-3Z"/><path class="cls-5" d="M602.18,101.67l1.58,3.06,4.15-2.51-1.65-3.17Z"/><path class="cls-5" d="M607.35,98.36l1.66,3.2,4.14-2.5-1.71-3.3Z"/><path class="cls-5" d="M586.7,111.65l1.33,2.57,4.14-2.5-1.4-2.71Z"/><path class="cls-5" d="M566.12,125.08l.93,1.8,4.14-2.51-1-2Z"/><path class="cls-5" d="M633.38,82.16l1.85,3.58,4.14-2.5-1.82-3.52C636.29,80.44,634.89,81.26,633.38,82.16Z"/><path class="cls-5" d="M642.28,77.15c-1,.48-2.2,1.14-3.61,1.93l1.8,3.5L644,80.46Z"/><path class="cls-5" d="M628.13,85.33,630,88.9l4.15-2.5-1.85-3.58C631,83.6,629.58,84.44,628.13,85.33Z"/><path class="cls-5" d="M561,128.46l.82,1.58,4.15-2.5-.91-1.75Z"/><path class="cls-5" d="M556.25,131.58l.75,1.36,3.7-2.24-.79-1.53Z"/><path class="cls-5" d="M622.92,88.54l1.82,3.53,4.15-2.5L627,86Z"/><path class="cls-5" d="M630.69,116.87l-1.78-3.44,4.44-1.94,1.81,3.51Z"/><path class="cls-5" d="M625,119.21l-1.73-3.33,4.44-1.93,1.77,3.41Z"/><path class="cls-5" d="M579.42,137.5l-1-2,4.44-1.94,1.11,2.16Z"/><path class="cls-5" d="M585.14,135.24,584,133.05l4.44-1.94,1.21,2.34Z"/><path class="cls-5" d="M602.26,128.43l-1.42-2.74,4.44-1.94,1.49,2.88Z"/><path class="cls-5" d="M590.85,133l-1.23-2.38,4.43-1.94,1.31,2.53Z"/><path class="cls-5" d="M608,126.15l-1.5-2.91,4.43-1.94,1.57,3Z"/><path class="cls-5" d="M613.65,123.85l-1.58-3.06,4.44-1.94,1.64,3.17Z"/><path class="cls-5" d="M619.34,121.54l-1.66-3.2,4.44-1.94,1.71,3.3Z"/><path class="cls-5" d="M596.56,130.71l-1.33-2.57,4.44-1.93,1.4,2.7Z"/><path class="cls-5" d="M573.7,139.75l-.92-1.8,4.43-1.94,1,2Z"/><path class="cls-5" d="M647.6,109.66l-1.85-3.58,4.43-1.94,1.83,3.52C650.69,108.27,649.21,108.94,647.6,109.66Z"/><path class="cls-5" d="M656.83,105.29c-1,.52-2.2,1.13-3.66,1.83l-1.81-3.5,3.76-1.64Z"/><path class="cls-5" d="M642,112.11l-1.85-3.58,4.44-1.94,1.86,3.59Z"/><path class="cls-5" d="M568,142l-.82-1.59,4.44-1.94.91,1.76Z"/><path class="cls-5" d="M562.7,144.05l-.68-1.4,4-1.73.79,1.53Z"/><path class="cls-5" d="M636.34,114.51,634.52,111l4.48-2,1.84,3.57Z"/><path class="cls-3" d="M514.2,119.33l-1.76.51a.63.63,0,0,0-.42.77,1,1,0,0,0,.07.15l17.4,27.72,15.44-9.91-3.32-2.29C533.61,143.45,520.27,136.17,514.2,119.33Z"/><path class="cls-3" d="M548.56,185.9l-1.43,1.1a.6.6,0,0,1-.86,0,.64.64,0,0,1-.14-.22l-12.57-30.21,17-6.88,0,4C540.09,156.12,538.33,171.22,548.56,185.9Z"/><path class="cls-2" d="M725.64,310.43a9.8,9.8,0,0,0-18.58-.44c-4.58-7.29-14.61-10.67-24.25-4a3.32,3.32,0,0,0-.7.65c-5.08,6.34-5.58,12.58-3.8,17.72a255.42,255.42,0,0,1-67,3.08c2.72-11.13.16-24.14-10.69-35.72a6,6,0,0,0-1.45-1.16c-13.26-7.66-25.77-7.26-35.5-2.37v-.61c-1.33-10.46-14-16.57-23.74-7.1a2.38,2.38,0,0,0-.51.67c-5.73,10.72.79,20.52,9.5,21.6a34.35,34.35,0,0,0-3.31,9.17,153.53,153.53,0,0,1-28-15.07c3.11-5.07,3.44-12.08-1.55-18.92a2.36,2.36,0,0,0-.59-.59c-7.25-5.39-14.82-4.48-19.79-.41-8.91-11-14.6-23.46-16.09-37.21a16.79,16.79,0,0,0,4.26-33.31c.41-9,11.65-26.13,28.89-42.79C464.1,180.13,427.61,185,411.65,179.16c5-5,6.54-13.61.71-21.75a3.08,3.08,0,0,0-.64-.66c-12.29-9.18-25.65-.42-25.65,11.52a15.27,15.27,0,0,0,.87,5.1h0a4.12,4.12,0,0,0-5.36,2.28l0,.08C374,194.44,350.24,204.6,328.1,188a6.31,6.31,0,0,1-1.25-1.28c-15.83-22-6.82-45.55,10.56-53.91a1.07,1.07,0,0,0,.55-1.35l-1.55-4a15.24,15.24,0,0,0,9.2,2.72h.06c.93-.17,1.88-.3,2.84-.38,10.24-2.32,16.69-15,8.29-26.7a3.37,3.37,0,0,0-.67-.69c-9.78-7.29-20.15-3.64-24.46,4-2.61-30.51,6.38-81.27,46.74-112.72H170.57V388.47H750.49V297.88A197.4,197.4,0,0,1,725.64,310.43ZM332.15,48.71a2.29,2.29,0,1,1-2.23,2.35V51A2.26,2.26,0,0,1,332.15,48.71ZM319.63,55.1a11.42,11.42,0,1,1-11.19,11.65v-.23A11.3,11.3,0,0,1,319.62,55.1ZM303.82,17.63a3.07,3.07,0,1,1-3,3.14V20.7a3,3,0,0,1,2.93-3.07Zm-24.05,95.59a6.14,6.14,0,1,1,6-6.28v.14a6.08,6.08,0,0,1-6,6.14Zm23.75,23.59a16,16,0,1,1,15.66-16.34v.34a15.82,15.82,0,0,1-15.64,16Zm87.24,56.6a5,5,0,1,1,4.93-5.07v.07A5,5,0,0,1,390.76,193.41ZM514.47,319.28a5,5,0,0,1-2.76-.85,15.95,15.95,0,1,1-.69-7.9,4.91,4.91,0,0,1,3.45-1.42,5.09,5.09,0,0,1,0,10.17Zm18.06,25.21a3.61,3.61,0,1,1,3.53-3.69v.08a3.57,3.57,0,0,1-3.53,3.61Zm152,21.19a18.93,18.93,0,1,1,18.56-19.3v.37a18.76,18.76,0,0,1-18.54,18.93ZM715,339.91a3.16,3.16,0,1,1,3.09-3.23v.08a3.12,3.12,0,0,1-3.09,3.15Z"/><circle class="cls-2" cx="386.7" cy="47.29" r="17.06"/><path class="cls-2" d="M406.7,13.94A27.2,27.2,0,1,1,356.14,0h46.72A27.14,27.14,0,0,1,406.7,13.94Z"/><path class="cls-2" d="M360.21,54.31a5,5,0,1,0-5,5A5,5,0,0,0,360.21,54.31Z"/><path class="cls-2" d="M363.45,98.39a2.51,2.51,0,1,0-2.51-2.51,2.51,2.51,0,0,0,2.51,2.51Z"/><path class="cls-2" d="M432.2,164.63a3,3,0,1,0-3-3A3,3,0,0,0,432.2,164.63Z"/><path class="cls-2" d="M416.14,134a2.51,2.51,0,1,0-2.51-2.51,2.51,2.51,0,0,0,2.51,2.51Z"/><circle class="cls-2" cx="463.31" cy="167.64" r="5.52"/><path class="cls-2" d="M496.12,245.05a4.56,4.56,0,1,0,4.56-4.56h0A4.56,4.56,0,0,0,496.12,245.05Z"/><path class="cls-2" d="M523.47,264.8a2.28,2.28,0,1,0-2.28-2.28,2.28,2.28,0,0,0,2.28,2.28Z"/><path class="cls-2" d="M621.65,285.68a4.67,4.67,0,1,0-5.23-4v0A4.67,4.67,0,0,0,621.65,285.68Z"/><path class="cls-2" d="M706.41,291.55a9.24,9.24,0,1,0-10.35-8,9.24,9.24,0,0,0,10.35,8Z"/><path class="cls-2" d="M723.06,286.77a2.79,2.79,0,1,0-3.12-2.41h0A2.79,2.79,0,0,0,723.06,286.77Z"/><path class="cls-2" d="M356.7,129.13c-.89.08-1.77.19-2.64.34A15.64,15.64,0,0,0,356.7,129.13Z"/><path class="cls-2" d="M416.21,33.06a3.05,3.05,0,1,1-3-3.05h0a3,3,0,0,1,3,3Z"/></g></svg>